<svg height="512pt" viewBox="0 0 512 512" width="512pt" xmlns="http://www.w3.org/2000/svg"><path d="m231.5 190.53125 6.105469-21.371094h36.792969l6.109374 21.371094c.800782 3.054688 3.53125 4.175781 7.066407 4.175781 5.625 0 13.175781-3.695312 13.175781-8.675781 0-.480469-.160156-.964844-.320312-1.605469l-31.007813-101.066406c-1.449219-4.820313-7.394531-7.066406-13.5-7.066406-5.945313 0-11.890625 2.246093-13.335937 7.066406l-31.011719 101.066406c-.160157.640625-.320313 1.285157-.320313 1.605469 0 5.144531 7.554688 8.675781 13.175782 8.675781 3.535156 0 6.265624-1.121093 7.070312-4.175781zm24.421875-87.085938 13.976563 49.324219h-27.957032zm0 0"/><path d="m156.628906 371.597656c8.515625-3.691406 13.65625-12.371094 13.65625-25.546875 0-22.816406-15.585937-28.277343-32.296875-28.277343h-31.011719c-4.65625 0-9.15625 2.25-9.15625 6.585937v104.441406c0 3.375 3.535157 6.425781 9.15625 6.425781h34.066407c18.15625 0 32.136719-9 32.136719-34.0625v-3.375c0-16.066406-6.75-22.335937-16.550782-26.191406zm-38.078125-35.507812h17.832031c8.191407 0 13.015626 5.140625 13.015626 13.5 0 8.191406-4.179688 13.8125-12.855469 13.8125h-17.992188zm33.738281 63.308594c0 12.210937-5.78125 17.511718-15.585937 17.511718h-18.152344v-37.113281h18.152344c9.804687 0 15.585937 4.496094 15.585937 17.027344zm0 0"/><path d="m376.582031 335.609375c15.265625 0 16.390625 10.925781 16.710938 15.90625.160156 4.820313 4.5 6.585937 10.441406 6.585937 7.070313 0 10.445313-1.925781 10.445313-10.285156 0-18.636718-15.910157-30.527344-38.242188-30.527344-20.246094 0-37.117188 9.964844-37.117188 36.796876v44.828124c0 26.832032 16.710938 36.796876 36.957032 36.796876 22.492187 0 38.402344-12.371094 38.402344-31.816407 0-8.195312-3.375-10.285156-10.605469-10.285156-5.460938 0-9.960938 1.609375-10.28125 6.589844-.484375 6.75-1.769531 17.191406-16.390625 17.191406-11.085938 0-17.191406-5.941406-17.191406-18.476563v-44.828124c0-12.53125 6.105468-18.476563 16.871093-18.476563zm0 0"/><path d="m456.835938 241h-71.4375c3.890624-7.550781 6.101562-16.105469 6.101562-25.167969v-160.667969c0-30.417968-24.746094-55.164062-55.164062-55.164062h-160.667969c-30.421875 0-55.167969 24.746094-55.167969 55.164062v160.667969c0 9.066407 2.210938 17.617188 6.101562 25.167969h-71.433593c-30.421875 0-55.167969 24.746094-55.167969 55.164062v160.667969c0 30.421875 24.746094 55.167969 55.167969 55.167969h160.667969c15.820312 0 30.097656-6.703125 40.164062-17.410156 10.070312 10.707031 24.347656 17.410156 40.167969 17.410156h160.667969c30.417968 0 55.164062-24.746094 55.164062-55.167969v-160.667969c0-30.417968-24.746094-55.164062-55.164062-55.164062zm-306.335938-25.167969v-160.667969c0-13.875 11.289062-25.164062 25.167969-25.164062h160.667969c13.875 0 25.164062 11.289062 25.164062 25.164062v160.667969c0 13.878907-11.289062 25.167969-25.164062 25.167969h-160.667969c-13.878907 0-25.167969-11.289062-25.167969-25.167969zm65.335938 266.167969h-160.667969c-13.878907 0-25.167969-11.289062-25.167969-25.167969v-160.667969c0-13.875 11.289062-25.164062 25.167969-25.164062h160.667969c13.875 0 25.164062 11.289062 25.164062 25.164062v160.667969c0 13.878907-11.289062 25.167969-25.164062 25.167969zm266.164062-25.167969c0 13.878907-11.289062 25.167969-25.164062 25.167969h-160.667969c-13.878907 0-25.167969-11.289062-25.167969-25.167969v-160.667969c0-13.875 11.289062-25.164062 25.167969-25.164062h160.667969c13.875 0 25.164062 11.289062 25.164062 25.164062zm0 0"/></svg>