<?xml version="1.0" encoding="iso-8859-1"?>
<!-- Generator: Adobe Illustrator 19.0.0, SVG Export Plug-In . SVG Version: 6.00 Build 0)  -->
<svg version="1.1" id="Capa_1" xmlns="http://www.w3.org/2000/svg" xmlns:xlink="http://www.w3.org/1999/xlink" x="0px" y="0px"
	 viewBox="0 0 512 512" style="enable-background:new 0 0 512 512;" xml:space="preserve">
<g>
	<g>
		<path d="M280.878,340.996c0-13.718-11.16-24.878-24.878-24.878s-24.878,11.16-24.878,24.878c0,8.491,4.277,16.314,11.441,20.929
			l8.703,5.606l-11.98,56.295h33.428l-11.98-56.295l8.703-5.606C276.601,357.31,280.878,349.487,280.878,340.996z"/>
	</g>
</g>
<g>
	<g>
		<path d="M390.033,227.945v-93.913C390.033,60.009,330.024,0,256,0S121.967,60.009,121.967,134.033v93.913H58.828V512h394.344
			V227.945H390.033z M309.771,453.827H202.229l15.617-73.383c-10.617-10.236-16.725-24.361-16.725-39.448
			c0-30.26,24.618-54.878,54.878-54.878c30.26,0,54.878,24.618,54.878,54.878c0,15.087-6.107,29.212-16.725,39.448L309.771,453.827z
			 M330.033,227.945H181.967v-93.912C181.967,93.146,215.113,60,256,60c40.887,0,74.033,33.146,74.033,74.033V227.945z"/>
	</g>
</g>
</g>
</svg>
